<?xml version="1.0" encoding="UTF-8"?>
<svg id="Capa_1" data-name="Capa 1" xmlns="http://www.w3.org/2000/svg" viewBox="0 0 1000 1000">
  <defs>
    <style>
      .cls-1 {
        fill: #fff2d9;
      }

      .cls-1, .cls-2, .cls-3, .cls-4, .cls-5 {
        stroke-width: 0px;
      }

      .cls-2 {
        fill: #febf24;
      }

      .cls-3 {
        fill: #f47701;
      }

      .cls-4 {
        fill: #fff;
      }

      .cls-5 {
        fill: #984603;
      }
    </style>
  </defs>
  <circle class="cls-4" cx="500" cy="500" r="500"/>
  <g>
    <path class="cls-5" d="M792.22,247.59c23.27.43,46.28,2.24,68.74,8.62,13.55,3.85,26.22,9.55,37.08,18.73,18.95,16.02,26.06,36.67,23.28,60.98-2.21,19.36-9.84,36.82-19.5,53.48-14.3,24.66-32.48,46.31-52.29,66.65-36.6,37.58-77.57,69.88-120.98,99.11-110.24,74.24-229.18,129.94-356.99,166.53-36.8,10.53-74.16,18.57-112.18,23.2-30.45,3.71-60.98,5.27-91.55,1.48-18.3-2.27-36.15-6.37-52.66-14.98-16.31-8.51-29.07-20.42-35.31-38.23-4.97-14.17-4.48-28.54-1.08-42.95,4.37-18.48,12.85-35.11,23-50.97,13.05-20.38,28.61-38.76,45.42-56.11,38.12-39.33,80.95-72.97,126.32-103.41,112.79-75.68,234.49-132.1,365.53-168.12,35.44-9.74,71.41-17,107.99-20.82,15.01-1.57,30.12-2.16,45.19-3.19ZM705.03,506.59c.89-.67,1.77-1.35,2.66-2.02,7.87-5.33,15.87-10.47,23.59-16.01,29.32-21.03,58.55-42.16,85.92-65.77,22.04-19.02,42.67-39.36,60.66-62.28,8.55-10.89,15.84-22.52,18.21-36.51.95-5.63,1.32-11.37,2.44-16.95.92-4.59-.29-8.2-3.25-11.56-5.33-6.06-11.15-11.45-18.9-14.3-1.12-.96-2.1-2.23-3.4-2.83-3.98-1.84-8.03-3.56-12.14-5.09-18.63-6.94-38.15-9.1-57.79-9.98-16.4-.74-32.81-.05-49.14,2-13.6,1.71-27.33,2.67-40.79,5.11-19.67,3.55-39.17,8.11-58.73,12.28-1.9.41-3.75,1.07-5.63,1.62,10.1.69,20.04.59,29.97.74,5.32.08,10.63.58,15.94.9,16,1.22,31.83,3.6,47.4,7.45,23.03,5.69,44.69,14.46,63.19,29.77,6.8,5.62,13.05,11.86,15.94,20.56,3.22,9.66-1.89,18.15-11.91,19.16-4.49.45-9.22.23-13.65-.64-13.56-2.65-26.21-8.12-38.84-13.55-21.92-9.44-43.95-18.58-67-24.98-15.45-4.29-30.98-8.59-46.97-9.76-17.11-1.25-34.33-1.04-51.51-1.46.09-.71.01-1.96.29-2.05,1.99-.62,4.04-1.19,6.11-1.41,8.32-.88,16.72-1.2,24.97-2.5,12.82-2.02,25.53-.52,38.22.55,9.07.76,18.04,2.74,27.05,4.21,19.25,3.14,38,8.25,56.22,15.13,15.34,5.8,30.42,12.32,45.76,18.11,5.14,1.94,10.4,4.68,16.83,3.14-2.34-5.41-6.03-9.23-10.08-12.66-12.72-10.76-27.36-18.18-43.09-23.18-26.48-8.42-53.77-12.34-81.53-13.16-1.91-.06-3.82-.1-5.73-.14-10.1-.26-20.23-1.06-30.3-.64-13.49.56-26.96,1.94-40.4,3.26-4.89.48-9.87,1.29-14.51,2.83-31.71,10.52-62.8,22.69-93.52,35.8-1.9.81-3.7,1.84-6.37,3.17,7.11-.25,12.99-.53,18.87-.63,7.45-.13,14.9-.12,22.36-.17,15.66.7,31.16,2.61,46.45,6.04,23.88,5.36,46.39,14,66.53,28.19,10.54,7.43,20.22,15.76,26.78,27.08,1.89,3.25,3.43,6.86,4.32,10.51,2.09,8.53-2.2,15.26-10.75,17.14-2.54.56-5.41.78-7.9.19-5.35-1.28-10.8-2.65-15.76-4.95-10.4-4.81-20.6-10.06-30.71-15.45-30.13-16.08-61.54-28.71-95.01-35.94-19.31-4.17-38.77-6.41-58.54-4.96-4.32-.29-8.63-.58-12.95-.87.73-1.52,1.5-2.19,2.36-2.33,10.32-1.68,20.61-4.1,31.01-4.68,11.39-.63,22.9.07,34.3.95,8.89.69,17.8,2.06,26.51,3.98,30.31,6.7,58.01,20.02,85.33,34.28,9.65,5.04,19.54,9.64,29.45,14.14,2.62,1.19,5.74,1.27,9.12,1.96-.48-6.49-4.02-10.43-7.28-14.21-9.97-11.54-21.91-20.67-35.39-27.83-29.51-15.67-61.54-20.89-94.36-22.59-17.58-.91-35.11.55-52.58,2.35-6.77.7-13.72,1.18-19.99,4.41-26.01,13.39-52.04,26.73-78,40.19-4.86,2.52-9.47,5.51-14.19,8.28,1.85.67,3.43.36,5.02.25,7.03-.51,14.05-1.17,21.09-1.36,4.74-.13,9.5.43,14.24.68,5.3.64,10.63,1.03,15.88,1.96,22.79,4.03,44.13,12.05,64.01,23.87,16.35,9.72,31.47,20.99,43.26,36.16,6.01,7.73,11.18,15.87,12.72,25.91,1.83,11.92-6.99,20.59-18.82,18.35-7.29-1.37-13.76-4.6-19.9-8.49-13.22-8.38-26.14-17.25-39.45-25.48-38.38-23.7-80.16-36.81-125.19-39.48-3.6-.54-7.2-1.07-10.8-1.61.02-.5.03-1.01.05-1.51,7.35-.63,14.7-1.87,22.04-1.75,11.99.2,23.98,1.12,35.94,2.05,12.4.97,24.48,3.72,36.31,7.51,25.27,8.1,48.68,20.07,70.96,34.36,7.72,4.95,15.42,9.92,23.19,14.77,3.01,1.88,6.13,3.66,9.82,3.78,1.29-2.94,0-5.16-1.07-7.36-6.41-13.22-16.48-23.29-27.91-32.15-13.22-10.24-27.74-18.2-43.21-24.57-17.65-7.26-36.08-11.09-55.01-12.23-19.1-1.15-38.13.33-57.03,3.38-4.53.73-8.81,1.98-12.77,4.53-23.93,15.39-47.81,30.85-70.49,48.07-5.71,4.33-11.45,8.61-17.82,13.38,12.15-.28,23.3-.54,34.44-.8,5.5.57,11.05.84,16.49,1.77,24.68,4.23,47.97,12.46,69.76,24.85,12.18,6.92,23.66,14.78,33.34,25.02,4.76,5.04,8.83,10.57,10.62,17.44,1.53,5.87-.42,11.99-5.15,15.3-4.36,3.05-9.3,4.26-14.65,3.63-11.65-1.37-21.81-6.65-31.9-12.14-19.79-10.77-39.36-21.95-60.53-29.97-23.19-8.79-47.03-12.87-71.82-11.11-2.71-.75-5.97.71-9.22-2.73,11.36-1.09,21.74-2.77,32.14-2.89,9.27-.11,18.66.92,27.83,2.48,26.41,4.49,50.85,14.71,74.58,26.79,8.51,4.33,16.89,8.93,25.48,13.1,3.57,1.73,7.49,2.78,11.31,3.94,2.67.81,5.29.65,7.95-2.1-.75-1.78-1.28-4.02-2.49-5.79-5.68-8.29-13.07-14.88-21.22-20.66-28.32-20.08-60.17-30.29-94.48-32.77-19.57-1.41-38.9.77-57.09,8.99-2.92,1.32-5.85,2.92-8.29,4.96-5.12,4.28-10.12,8.75-14.8,13.5-12.88,13.06-25.59,26.28-38.31,39.49-1.24,1.29-2.15,2.91-3.61,4.93,8.32-.39,15.68-.74,23.04-1.08,10.36.36,20.44,2.36,30.41,5.08,18.79,5.13,35.99,13.72,52.25,24.3,9.78,6.36,19.33,13.01,27.44,21.53,4.03,4.23,7.15,8.94,8.59,14.65,1.9,7.57-1.42,15.31-8.34,18.93-5.06,2.65-10.45,3.24-16.12,2.33-14.41-2.3-27.29-8.45-39.76-15.59-13.92-7.97-27.63-16.32-41.62-24.17-14.29-8.03-29.35-13.83-46.1-13.77-2.83-.73-5.65-1.46-8.48-2.2,1.73-1.24,3.36-2.02,5.01-2.07,9.73-.29,19.44-.4,29.07,1.69,13.2,2.86,25.29,8.53,37.4,14.19,14.36,6.73,28.54,13.88,43.07,20.22,7.83,3.41,16.18,5.67,24.4,8.1,2.81.83,6.14,1.29,8.19-3.08-2.08-3.07-4.01-6.62-6.59-9.6-10.8-12.41-23.76-22.17-38.43-29.48-21.76-10.85-44.88-16.02-69.23-14.7-9.73.53-19.23,2.81-28.33,6.45-2.9,1.16-5.16,2.87-6.97,5.61-6.98,10.55-13.22,21.5-17.97,33.2-3.07,7.55-6.28,15.18-6.58,23.56-2.57,10.71-1.81,21.23,2.14,31.47.86,2.23,2.14,4.76,3.99,6.06,5.45,3.81,11.02,7.65,17.03,10.41,13.71,6.28,28.45,8.71,43.39,9.12,12.19.33,24.43-.12,36.61-.82,9.3-.53,18.7-1.26,27.79-3.17,18.46-3.87,36.89-8.04,55.06-13.09,31.8-8.85,63.34-18.6,94.24-30.25,27.85-10.5,55.66-21.11,83.49-31.67.37.09.75.15,1.11.28.14.05.2.28.46.68-2.1,1.23-4.13,2.59-6.3,3.65-8.75,4.28-17.5,8.58-26.35,12.66-12.49,5.75-24.93,11.65-37.64,16.89-19.05,7.85-38.24,15.39-57.52,22.68-29.29,11.07-58.97,21.04-89.29,28.93-11.41,2.97-23.02,5.49-34.7,7.03-12.06,1.59-24.32,1.73-36.49,2.53-.48.03-.95.27-1.42.42,10.59,1.4,21.18,2.48,31.78,2.85,7.03.24,14.09-.43,21.13-.89,10.26-.66,20.56-1.08,30.75-2.35,16.43-2.05,32.89-4.1,49.13-7.22,33.54-6.45,66.58-15.06,99.06-25.63,20.14-6.56,40.08-13.76,59.97-21.06,30.32-11.11,59.86-24.1,89.03-37.9,16.4-7.76,32.65-15.88,48.72-24.31,17.08-8.96,34.08-18.11,50.75-27.82,28.72-16.72,56.87-34.37,83.97-53.64,18.81-13.39,37.45-27.03,54.92-42.16,11.97-10.36,24.1-20.57,35.65-31.38,12.27-11.48,23.86-23.66,34.72-36.54,10.98-13.02,21.3-26.47,29.98-41.13,3.09-5.22,5.49-10.85,8.2-16.3.13-.49.27-.99.4-1.48-.12.51-.24,1.01-.36,1.52-1.16.95-2.5,1.75-3.46,2.88-8.54,10.02-17.51,19.62-27.3,28.44-7.65,6.89-15.14,13.99-23.12,20.48-20.28,16.48-41.45,31.78-63.17,46.3-13.79,9.22-27.72,18.26-41.76,27.1-12.43,7.82-25.09,15.25-37.67,22.82-1.46.88-3.07,1.52-4.61,2.26,1-2.4,2.56-3.78,4.07-5.21,1.77-1.67,3.5-3.39,5.24-5.09h-.02c.81-.72,1.62-1.44,2.43-2.17h-.03Z"/>
    <path class="cls-2" d="M206.86,525.03c24.78-1.76,48.63,2.32,71.82,11.11,21.17,8.02,40.74,19.2,60.53,29.97,10.09,5.49,20.24,10.77,31.9,12.14,5.35.63,10.28-.57,14.65-3.63,4.73-3.31,6.68-9.43,5.15-15.3-1.79-6.87-5.86-12.4-10.62-17.44-9.67-10.24-21.16-18.09-33.34-25.02-21.79-12.39-45.08-20.62-69.76-24.85-5.44-.93-10.99-1.2-16.49-1.77-1.29-.54-2.59-1.08-4.39-1.84,6.24-4.44,12.06-8.71,18-12.79,15.55-10.7,31.17-21.31,46.72-32.02,1.18-.81,2.02-2.12,3.02-3.2,45.04,2.68,86.82,15.78,125.19,39.48,13.32,8.22,26.23,17.1,39.45,25.48,6.13,3.89,12.61,7.11,19.9,8.49,11.84,2.23,20.65-6.44,18.82-18.35-1.54-10.03-6.71-18.18-12.72-25.91-11.8-15.16-26.92-26.44-43.26-36.16-19.88-11.82-41.23-19.84-64.01-23.87-5.24-.93-10.58-1.32-15.88-1.96-3.15-.52-6.31-1.04-9.91-1.64.93-.79,1.3-1.25,1.78-1.51,19.68-10.45,39.38-20.87,59.07-31.33,1.83-.97,3.58-2.1,5.36-3.16,19.78-1.46,39.23.79,58.54,4.96,33.47,7.23,64.88,19.86,95.01,35.94,10.11,5.39,20.32,10.64,30.71,15.45,4.96,2.3,10.41,3.67,15.76,4.95,2.49.59,5.36.37,7.9-.19,8.55-1.88,12.84-8.61,10.75-17.14-.89-3.64-2.44-7.25-4.32-10.51-6.56-11.31-16.24-19.65-26.78-27.08-20.14-14.19-42.65-22.83-66.53-28.19-15.3-3.43-30.8-5.34-46.45-6.04-1.17-.49-2.35-.98-4.21-1.75,17.63-6.74,34.75-13.3,51.88-19.84,7.06-2.7,14.12-5.37,21.18-8.05,17.17.42,34.39.21,51.51,1.46,15.99,1.17,31.52,5.47,46.97,9.76,23.06,6.41,45.08,15.54,67,24.98,12.63,5.44,25.27,10.91,38.84,13.55,4.43.87,9.16,1.09,13.65.64,10.02-1.01,15.13-9.49,11.91-19.16-2.9-8.7-9.15-14.94-15.94-20.56-18.49-15.3-40.16-24.07-63.19-29.77-15.57-3.85-31.4-6.23-47.4-7.45-.77-.48-1.55-.97-2.75-1.72,2.42-.57,4.51-1.2,6.64-1.53,15.4-2.4,30.78-4.96,46.22-7.02,10.92-1.46,21.93-2.96,32.92-3.13,18.31-.27,36.64-1.07,54.98.75,9.5.94,18.87,2.24,28.13,4.47,5.16,1.24,10.37,2.3,15.56,3.45,7.75,2.85,13.57,8.24,18.9,14.3,2.96,3.37,4.18,6.98,3.25,11.56-1.13,5.59-1.49,11.33-2.44,16.95-2.37,13.99-9.66,25.62-18.21,36.51-17.99,22.91-38.62,43.26-60.66,62.28-27.36,23.61-56.6,44.74-85.92,65.77-7.72,5.54-15.72,10.68-23.59,16.01-.89.67-1.77,1.35-2.66,2.02,0,0,.03-.01.03-.01-.81.73-1.62,1.45-2.43,2.18,0,0,.02-.01.02-.01-1.62.46-3.43.6-4.84,1.43-10.02,5.92-19.87,12.14-29.95,17.95-16.2,9.34-32.35,18.82-48.88,27.55-15.71,8.3-31.95,15.57-47.83,23.55-29.72,14.92-59.36,30.01-89.02,45.07-9.17,4.66-18.29,9.44-27.43,14.16-27.83,10.56-55.64,21.17-83.49,31.67-30.91,11.65-62.45,21.41-94.24,30.25-18.16,5.05-36.6,9.22-55.06,13.09-9.09,1.91-18.49,2.64-27.79,3.17-12.18.69-24.42,1.15-36.61.82-14.94-.41-29.69-2.83-43.39-9.12-6.01-2.76-11.58-6.6-17.03-10.41-1.85-1.29-3.13-3.83-3.99-6.06-3.94-10.23-4.71-20.76-2.14-31.47,1.1-1.98,2.17-3.97,3.3-5.93,5.69-9.84,11.04-19.89,17.22-29.42,4.03-6.22,7.99-12.83,14.93-16.57,16.75-.06,31.81,5.74,46.1,13.77,13.99,7.85,27.7,16.2,41.62,24.17,12.47,7.15,25.36,13.29,39.76,15.59,5.67.91,11.06.32,16.12-2.33,6.92-3.63,10.24-11.36,8.34-18.93-1.44-5.72-4.55-10.42-8.59-14.65-8.11-8.51-17.66-15.16-27.44-21.53-16.26-10.58-33.46-19.16-52.25-24.3-9.96-2.72-20.05-4.72-30.4-5.08-1.67-.51-3.33-1.02-5.36-1.64.92-1.04,1.51-1.76,2.16-2.42,12.3-12.71,25.31-24.63,39.04-35.8,3.96-3.22,7.58-6.86,11.36-10.3ZM440.24,598.29c.26.49.52.99.78,1.48,7.08-2.22,14.28-4.11,21.22-6.72,47.61-17.91,94.25-38.11,140.06-60.21,26.53-12.8,52.71-26.24,77.19-42.73,18.89-12.73,36.64-26.92,53.89-41.77,12.05-10.37,23.17-21.65,33.63-33.6,1.91-2.19,3.58-4.59,5.36-6.9-.38-.4-.77-.79-1.15-1.19-1.4,1.05-2.8,2.11-4.22,3.14-11.13,8.08-21.79,16.91-33.48,24.09-34.2,20.99-68.52,41.83-103.33,61.77-35.32,20.24-71.15,39.58-107.01,58.85-21.54,11.58-43.6,22.21-65.33,33.44-6.04,3.12-11.76,6.88-17.63,10.34ZM616.67,456.04c-1.84-2.38-3.43-5.01-5.56-7.1-10.09-9.91-20.09-19.93-30.59-29.4-11.93-10.77-25.84-18.43-41.26-22.99-21.62-6.4-43.77-8.35-66.32-6.68,1.1.68,2.25,1.24,3.46,1.45,20.23,3.53,39.49,10.29,58.66,17.4,22.77,8.45,43.79,19.89,62.56,35.43,5.68,4.7,11.21,9.75,19.05,11.89ZM753.2,373.99c.39-.38.77-.75,1.16-1.13-1.93-2.03-3.75-4.19-5.81-6.08-4.22-3.88-8.52-7.68-12.89-11.39-9.64-8.16-19.63-15.87-30.69-22.05-14.11-7.89-29.49-11.91-45.45-12.55-14.09-.57-28.24.45-42.36.83-1.97.05-4.15-.1-5.71,2.52,1.38.3,2.42.73,3.45.73,19.65.04,38.74,3.72,57.38,9.57,21.36,6.71,42.34,14.36,61.11,27.02,6.47,4.37,13.2,8.36,19.81,12.52ZM337.57,461.23c2.88.76,4.52,1.18,6.15,1.63,9.02,2.46,18.2,4.46,27.02,7.49,29.84,10.24,57.58,24.61,82.89,43.55,3.29,2.47,6.55,5.05,10.98,5.75-1.75-2.94-3.59-5.78-5.93-8.14-6.87-6.91-13.99-13.59-20.93-20.44-12.01-11.85-26.36-19.61-42.59-23.66-10.9-2.72-21.96-5.09-33.09-6.48-7.62-.95-15.5-2.52-24.49.28ZM353.45,597.04c.35-.45.7-.89,1.05-1.34-1.98-2.53-3.74-5.27-5.98-7.54-9.11-9.24-17.67-19.1-28.54-26.46-19.45-13.17-41.87-18.06-64.27-22.93-1.18-.26-2.57.45-3.86.71l-.14,1.45c1.65.74,3.25,1.61,4.96,2.19,3.61,1.24,7.33,2.16,10.89,3.5,26.68,10.04,50.94,24.34,73.42,41.78,3.99,3.09,8.31,5.77,12.47,8.63ZM134.59,628.27c2.23,3.28,2.21,3.37,7.71,5.3,14.59,5.14,28.65,11.44,42.32,18.66,4.72,2.49,9.41,5.04,14.23,7.32,3.39,1.59,6.83,3.36,11.16,2.8-1.25-3.66-3.95-5.84-6.57-7.91-11.26-8.94-23.25-16.66-37.13-20.95-7.27-2.25-14.58-4.41-21.99-6.11-3.11-.72-6.7-1.68-9.74.89ZM437.6,525.84l.97-1.44c-2.19-2.58-4.14-5.43-6.62-7.7-5.92-5.41-11.83-10.89-18.22-15.72-12.03-9.09-25.37-15.53-40.46-17.87-2.46-.38-4.8-.72-7.31,2.02,2.08,1.13,3.64,2.05,5.26,2.86,6.31,3.17,12.86,5.94,18.92,9.53,12.97,7.7,25.67,15.86,38.54,23.73,2.84,1.74,5.94,3.07,8.92,4.59ZM509.58,420.51c4.15,1.8,8.33,3.53,12.45,5.4,17.26,7.82,33.09,18.08,48.84,28.5,3.3,2.19,6.73,4.07,10.98,4.58-8.86-18.26-42.67-37.14-72.27-38.48ZM270.15,564.79c8.59,7.7,41.34,24.98,47.41,24.9-.81-.88-1.4-1.6-2.07-2.23-8.13-7.64-17.49-13.54-27.21-18.85-3.82-2.08-8.05-3.42-12.16-4.94-1.95-.72-4.09-1.32-5.97,1.12Z"/>
    <path class="cls-3" d="M454.71,638.45c9.14-4.72,18.25-9.5,27.43-14.16,29.65-15.06,59.29-30.15,89.02-45.07,15.88-7.97,32.12-15.25,47.83-23.55,16.53-8.73,32.68-18.2,48.88-27.55,10.08-5.81,19.93-12.04,29.95-17.95,1.4-.83,3.22-.97,4.84-1.43-1.75,1.7-3.47,3.42-5.24,5.09-1.51,1.43-3.07,2.81-4.07,5.21,1.54-.75,3.15-1.39,4.61-2.26,12.58-7.57,25.25-15,37.67-22.82,14.04-8.84,27.97-17.87,41.76-27.1,21.72-14.52,42.89-29.82,63.17-46.3,7.98-6.49,15.47-13.58,23.12-20.48,9.79-8.82,18.76-18.42,27.3-28.44.96-1.13,2.3-1.93,3.46-2.88,0,0-.05-.04-.05-.04-2.71,5.44-5.11,11.08-8.2,16.3-8.67,14.65-19,28.1-29.98,41.13-10.86,12.88-22.45,25.06-34.72,36.54-11.55,10.81-23.68,21.02-35.65,31.38-17.48,15.13-36.11,28.77-54.92,42.16-27.09,19.28-55.25,36.93-83.97,53.64-16.67,9.7-33.67,18.86-50.75,27.82-16.07,8.43-32.32,16.55-48.72,24.31-29.17,13.8-58.72,26.79-89.03,37.9-19.89,7.29-39.83,14.5-59.97,21.06-32.48,10.57-65.52,19.18-99.06,25.63-16.24,3.12-32.71,5.18-49.13,7.22-10.19,1.27-20.49,1.69-30.75,2.35-7.04.45-14.11,1.13-21.13.89-10.61-.37-21.19-1.45-31.78-2.85.47-.14.94-.38,1.42-.42,12.17-.8,24.42-.94,36.49-2.53,11.68-1.54,23.29-4.06,34.7-7.03,30.32-7.89,59.99-17.87,89.29-28.93,19.28-7.28,38.47-14.83,57.52-22.68,12.71-5.24,25.15-11.13,37.64-16.89,8.85-4.08,17.6-8.38,26.35-12.66,2.17-1.06,4.19-2.42,6.3-3.65-.26-.4-.33-.63-.46-.68-.35-.14-.74-.19-1.11-.28Z"/>
    <path class="cls-3" d="M324.05,440.4c-1,1.08-1.84,2.39-3.02,3.2-15.55,10.71-31.17,21.32-46.72,32.02-5.94,4.09-11.76,8.35-18,12.79,1.81.76,3.1,1.3,4.39,1.84-11.15.26-22.3.52-34.45.8,6.37-4.78,12.11-9.05,17.82-13.38,22.68-17.22,46.56-32.68,70.49-48.07,3.96-2.55,8.24-3.8,12.77-4.53,18.9-3.05,37.93-4.53,57.03-3.38,18.93,1.14,37.35,4.97,55.01,12.23,15.46,6.36,29.99,14.32,43.21,24.57,11.42,8.85,21.49,18.93,27.91,32.15,1.07,2.21,2.36,4.43,1.07,7.36-3.69-.12-6.81-1.9-9.82-3.78-7.77-4.85-15.48-9.83-23.19-14.77-22.28-14.28-45.69-26.26-70.96-34.36-11.83-3.79-23.91-6.55-36.31-7.51-11.96-.93-23.95-1.85-35.94-2.05-7.33-.12-14.69,1.12-22.04,1.75-.02.5-.03,1.01-.05,1.51,3.6.54,7.2,1.07,10.8,1.61Z"/>
    <path class="cls-3" d="M206.86,525.03c-3.78,3.45-7.4,7.08-11.36,10.3-13.72,11.16-26.74,23.09-39.04,35.8-.64.67-1.23,1.38-2.16,2.42,2.02.62,3.69,1.13,5.36,1.64-7.36.34-14.73.69-23.05,1.08,1.46-2.02,2.37-3.64,3.61-4.93,12.73-13.21,25.43-26.43,38.31-39.49,4.69-4.75,9.69-9.22,14.8-13.5,2.44-2.04,5.37-3.64,8.29-4.96,18.19-8.22,37.52-10.4,57.09-8.99,34.31,2.48,66.16,12.69,94.48,32.77,8.16,5.78,15.54,12.37,21.22,20.66,1.21,1.77,1.75,4.01,2.49,5.79-2.65,2.75-5.28,2.91-7.95,2.1-3.82-1.16-7.74-2.21-11.31-3.94-8.59-4.17-16.97-8.77-25.48-13.1-23.73-12.08-48.17-22.3-74.58-26.79-9.16-1.56-18.56-2.59-27.83-2.48-10.4.12-20.78,1.8-32.14,2.89,3.24,3.44,6.51,1.98,9.22,2.73Z"/>
    <path class="cls-3" d="M447.85,369.96c-1.79,1.06-3.53,2.19-5.36,3.16-19.68,10.45-39.38,20.88-59.07,31.33-.48.26-.86.71-1.78,1.51,3.6.59,6.76,1.12,9.91,1.64-4.75-.25-9.51-.81-14.24-.68-7.04.19-14.06.85-21.09,1.36-1.59.11-3.17.42-5.02-.25,4.72-2.77,9.34-5.76,14.19-8.28,25.97-13.46,52-26.81,78-40.19,6.27-3.23,13.22-3.71,19.99-4.41,17.47-1.8,35-3.26,52.58-2.35,32.82,1.7,64.84,6.92,94.36,22.59,13.48,7.16,25.42,16.29,35.39,27.83,3.26,3.77,6.8,7.72,7.28,14.21-3.38-.69-6.5-.77-9.12-1.96-9.91-4.5-19.8-9.11-29.45-14.14-27.32-14.26-55.02-27.58-85.33-34.28-8.71-1.93-17.62-3.29-26.51-3.98-11.4-.88-22.92-1.58-34.3-.95-10.39.57-20.68,3-31.01,4.68-.86.14-1.63.81-2.36,2.33,4.32.29,8.63.58,12.95.87Z"/>
    <path class="cls-3" d="M591.29,312.47c-7.06,2.68-14.12,5.36-21.18,8.05-17.13,6.54-34.25,13.1-51.88,19.84,1.86.77,3.03,1.26,4.21,1.75-7.45.05-14.91.03-22.36.17-5.88.1-11.76.39-18.87.63,2.66-1.33,4.47-2.36,6.37-3.17,30.72-13.11,61.81-25.28,93.52-35.8,4.65-1.54,9.62-2.35,14.51-2.83,13.45-1.32,26.91-2.69,40.4-3.26,10.07-.42,20.2.38,30.3.64,1.91.05,3.82.09,5.73.14,27.75.82,55.04,4.74,81.53,13.16,15.73,5,30.38,12.42,43.09,23.18,4.06,3.43,7.75,7.25,10.08,12.66-6.43,1.55-11.69-1.2-16.83-3.14-15.35-5.79-30.42-12.31-45.76-18.11-18.22-6.89-36.97-11.99-56.22-15.13-9.01-1.47-17.98-3.44-27.05-4.21-12.69-1.07-25.4-2.57-38.22-.55-8.25,1.3-16.65,1.63-24.97,2.5-2.07.22-4.12.8-6.11,1.41-.28.09-.2,1.34-.29,2.05Z"/>
    <path class="cls-3" d="M126.41,608.49c-6.94,3.75-10.89,10.35-14.93,16.57-6.17,9.52-11.53,19.58-17.22,29.42-1.13,1.96-2.21,3.95-3.3,5.93.3-8.38,3.51-16,6.58-23.56,4.75-11.7,11-22.65,17.97-33.2,1.81-2.74,4.07-4.45,6.97-5.61,9.11-3.64,18.6-5.92,28.33-6.45,24.34-1.32,47.46,3.85,69.23,14.7,14.67,7.31,27.63,17.07,38.43,29.48,2.59,2.97,4.51,6.52,6.59,9.6-2.04,4.36-5.38,3.91-8.19,3.08-8.22-2.44-16.57-4.69-24.4-8.1-14.53-6.34-28.7-13.49-43.07-20.22-12.1-5.67-24.2-11.33-37.4-14.19-9.62-2.09-19.34-1.98-29.07-1.69-1.65.05-3.28.83-5.01,2.07,2.83.73,5.65,1.46,8.48,2.2Z"/>
    <path class="cls-3" d="M876.35,281.19c-5.19-1.14-10.4-2.2-15.56-3.45-9.27-2.23-18.63-3.53-28.13-4.47-18.33-1.81-36.66-1.02-54.98-.75-10.99.16-22,1.67-32.92,3.13-15.44,2.06-30.82,4.62-46.22,7.02-2.13.33-4.22.96-6.64,1.53,1.2.75,1.98,1.23,2.75,1.72-5.31-.31-10.63-.82-15.94-.9-9.94-.15-19.88-.04-29.97-.74,1.87-.55,3.72-1.21,5.63-1.62,19.56-4.17,39.05-8.72,58.73-12.28,13.47-2.43,27.19-3.39,40.79-5.11,16.33-2.05,32.74-2.74,49.14-2,19.64.88,39.16,3.05,57.79,9.98,4.11,1.53,8.16,3.25,12.14,5.09,1.29.6,2.27,1.87,3.4,2.83Z"/>
    <path class="cls-3" d="M702.63,508.76c.81-.73,1.62-1.45,2.43-2.18-.81.73-1.62,1.45-2.43,2.18Z"/>
    <path class="cls-3" d="M705.03,506.59c.88-.67,1.77-1.35,2.66-2.02-.88.68-1.77,1.35-2.66,2.02Z"/>
    <path class="cls-3" d="M894.42,368.76c.12-.51.24-1.01.36-1.52-.13.49-.27.99-.4,1.48,0,0,.05.04.05.04Z"/>
    <path class="cls-1" d="M440.24,598.29c5.87-3.47,11.58-7.22,17.63-10.34,21.73-11.23,43.79-21.86,65.33-33.44,35.85-19.28,71.69-38.62,107.01-58.85,34.81-19.95,69.13-40.78,103.33-61.77,11.68-7.17,22.35-16.01,33.48-24.09,1.42-1.03,2.81-2.09,4.22-3.14.38.4.77.79,1.15,1.19-1.78,2.31-3.45,4.71-5.36,6.9-10.46,11.95-21.58,23.23-33.63,33.6-17.25,14.85-35,29.04-53.89,41.77-24.49,16.5-50.67,29.93-77.19,42.73-45.81,22.1-92.45,42.3-140.06,60.21-6.93,2.61-14.14,4.5-21.22,6.72-.26-.49-.52-.99-.78-1.48Z"/>
    <path class="cls-5" d="M616.67,456.04c-7.84-2.14-13.38-7.19-19.05-11.89-18.76-15.54-39.79-26.99-62.56-35.43-19.17-7.11-38.43-13.87-58.66-17.4-1.21-.21-2.36-.77-3.46-1.45,22.55-1.67,44.7.28,66.32,6.68,15.42,4.56,29.33,12.22,41.26,22.99,10.49,9.47,20.49,19.5,30.59,29.4,2.13,2.09,3.72,4.72,5.56,7.1Z"/>
    <path class="cls-5" d="M753.2,373.99c-6.61-4.16-13.34-8.16-19.81-12.52-18.77-12.66-39.76-20.31-61.11-27.02-18.64-5.86-37.73-9.53-57.38-9.57-1.03,0-2.06-.43-3.45-.73,1.56-2.62,3.74-2.47,5.71-2.52,14.12-.38,28.27-1.4,42.36-.83,15.96.64,31.33,4.66,45.45,12.55,11.06,6.18,21.05,13.89,30.69,22.05,4.37,3.71,8.67,7.51,12.89,11.39,2.06,1.89,3.88,4.04,5.81,6.08-.39.38-.77.75-1.16,1.13Z"/>
    <path class="cls-5" d="M337.57,461.23c8.99-2.8,16.87-1.24,24.49-.28,11.13,1.39,22.19,3.76,33.09,6.48,16.23,4.05,30.58,11.81,42.59,23.66,6.94,6.85,14.05,13.52,20.93,20.44,2.34,2.35,4.19,5.19,5.93,8.14-4.43-.7-7.68-3.29-10.98-5.75-25.31-18.94-53.04-33.31-82.89-43.55-8.82-3.03-18-5.02-27.02-7.49-1.63-.45-3.27-.87-6.15-1.63Z"/>
    <path class="cls-5" d="M353.45,597.04c-4.17-2.87-8.48-5.54-12.47-8.63-22.49-17.43-46.74-31.74-73.42-41.78-3.56-1.34-7.28-2.26-10.89-3.5-1.7-.58-3.31-1.45-4.96-2.19l.14-1.45c1.29-.26,2.68-.96,3.86-.71,22.41,4.87,44.82,9.76,64.27,22.93,10.87,7.36,19.42,17.22,28.54,26.46,2.24,2.27,4,5.02,5.98,7.54-.35.45-.7.89-1.05,1.34Z"/>
    <path class="cls-5" d="M134.59,628.27c3.05-2.57,6.64-1.61,9.74-.89,7.41,1.71,14.72,3.87,21.99,6.11,13.87,4.29,25.87,12.01,37.13,20.95,2.61,2.08,5.32,4.25,6.57,7.91-4.33.56-7.77-1.21-11.16-2.8-4.82-2.27-9.52-4.83-14.23-7.32-13.67-7.21-27.73-13.52-42.32-18.66-5.51-1.94-5.48-2.02-7.71-5.3Z"/>
    <path class="cls-5" d="M437.6,525.84c-2.98-1.52-6.08-2.85-8.92-4.59-12.87-7.87-25.57-16.03-38.54-23.73-6.06-3.6-12.61-6.36-18.92-9.53-1.62-.81-3.18-1.73-5.26-2.86,2.5-2.73,4.85-2.4,7.31-2.02,15.09,2.34,28.43,8.78,40.46,17.87,6.39,4.83,12.3,10.31,18.22,15.72,2.48,2.27,4.43,5.12,6.62,7.7l-.97,1.44Z"/>
    <path class="cls-5" d="M509.58,420.51c29.6,1.34,63.41,20.22,72.27,38.48-4.25-.51-7.68-2.4-10.98-4.58-15.74-10.42-31.58-20.67-48.84-28.5-4.12-1.87-8.3-3.6-12.45-5.4Z"/>
    <path class="cls-5" d="M270.15,564.79c1.89-2.44,4.02-1.84,5.97-1.12,4.11,1.51,8.34,2.85,12.16,4.94,9.72,5.31,19.08,11.22,27.21,18.85.67.63,1.26,1.35,2.07,2.23-6.07.08-38.82-17.2-47.41-24.9Z"/>
  </g>
</svg>