<?xml version="1.0" encoding="UTF-8"?>
<svg id="Capa_2" data-name="Capa 2" xmlns="http://www.w3.org/2000/svg" viewBox="0 0 100 100">
  <defs>
    <style>
      .cls-1 {
        fill: rgba(45, 60, 37, 1);
        stroke-width: 0px;
      }
    </style>
  </defs>
  <g id="oven">
    <path class="cls-1" d="M80.77,0H19.23C8.62,0,0,8.62,0,19.23v51.28c0,7.33,4.21,13.64,10.26,16.92v3.59c0,4.92,4.05,8.97,8.97,8.97h10.26c4.92,0,8.97-4.05,8.97-8.97v-1.28h23.08v1.28c0,4.92,4.05,8.97,8.97,8.97h10.26c4.92,0,8.97-4.05,8.97-8.97v-3.59c6.05-3.23,10.26-9.54,10.26-16.92V19.23c0-10.62-8.62-19.23-19.23-19.23ZM30.77,91.03c0,.72-.56,1.28-1.28,1.28h-10.26c-.72,0-1.28-.56-1.28-1.28v-1.28h12.82v1.28ZM82.05,89.74v1.28c0,.72-.56,1.28-1.28,1.28h-10.26c-.72,0-1.28-.56-1.28-1.28v-1.28h12.82ZM92.31,70.51c0,6.36-5.18,11.54-11.54,11.54H19.23c-6.36,0-11.54-5.18-11.54-11.54V19.23c0-6.36,5.18-11.54,11.54-11.54h61.54c6.36,0,11.54,5.18,11.54,11.54v51.28Z"/>
    <path class="cls-1" d="M70.51,28.21H29.49c-7.79,0-14.1,6.31-14.1,14.1v15.38c0,7.79,6.31,14.1,14.1,14.1h41.03c7.79,0,14.1-6.31,14.1-14.1v-15.38c0-7.79-6.31-14.1-14.1-14.1ZM76.92,57.69c0,3.54-2.87,6.41-6.41,6.41H29.49c-3.54,0-6.41-2.87-6.41-6.41v-15.38c0-3.54,2.87-6.41,6.41-6.41h41.03c3.54,0,6.41,2.87,6.41,6.41v15.38Z"/>
    <path class="cls-1" d="M50,53.85c2.1,0,3.85-1.74,3.85-3.85s-1.74-3.85-3.85-3.85h-.05c-2.1,0-3.79,1.74-3.79,3.85s1.74,3.85,3.85,3.85Z"/>
    <path class="cls-1" d="M50,53.85c2.1,0,3.85-1.74,3.85-3.85s-1.74-3.85-3.85-3.85h-.05c-2.1,0-3.79,1.74-3.79,3.85s1.74,3.85,3.85,3.85Z"/>
    <path class="cls-1" d="M50,53.85c2.1,0,3.85-1.74,3.85-3.85s-1.74-3.85-3.85-3.85h-.05c-2.1,0-3.79,1.74-3.79,3.85s1.74,3.85,3.85,3.85Z"/>
    <path class="cls-1" d="M57.69,46.15h-15.38c-2.1,0-3.85,1.74-3.85,3.85s1.74,3.85,3.85,3.85h15.38c2.1,0,3.85-1.74,3.85-3.85s-1.74-3.85-3.85-3.85Z"/>
  </g>
</svg>